<?xml version="1.0" standalone="no"?>
<!DOCTYPE svg PUBLIC "-//W3C//DTD SVG 20010904//EN"
 "http://www.w3.org/TR/2001/REC-SVG-20010904/DTD/svg10.dtd">
<svg version="1.0" xmlns="http://www.w3.org/2000/svg"
 width="300.000000pt" height="300.000000pt" viewBox="0 0 300.000000 300.000000"
 preserveAspectRatio="xMidYMid meet">
<metadata>
Created by potrace 1.16, written by Peter Selinger 2001-2019
</metadata>
<g transform="translate(0.000000,300.000000) scale(0.100000,-0.100000)"
fill="#000000" stroke="none">
<path d="M1105 2673 c-245 -33 -449 -86 -594 -155 -140 -67 -221 -164 -221
-266 0 -30 -70 -130 -152 -217 -85 -91 -93 -112 -79 -220 7 -55 25 -105 84
-232 68 -148 76 -170 87 -263 14 -116 9 -184 -23 -285 -19 -61 -22 -92 -22
-250 0 -178 0 -180 27 -227 72 -121 241 -188 477 -188 133 0 315 23 396 49 69
23 142 35 305 51 137 14 234 50 427 160 66 38 165 85 220 105 189 71 346 172
447 289 28 32 67 75 86 95 20 20 41 50 47 66 6 17 19 52 29 78 9 26 41 74 69
106 200 224 242 313 215 454 -11 60 -17 70 -112 178 -55 63 -125 140 -154 171
-30 31 -54 64 -54 74 0 24 -48 130 -87 192 -49 77 -114 144 -191 194 l-66 43
-566 1 c-311 1 -578 -1 -595 -3z m1155 -68 c120 -73 229 -215 270 -350 8 -28
53 -86 155 -200 135 -151 144 -163 156 -219 27 -130 -12 -220 -179 -413 -64
-74 -85 -106 -102 -159 -16 -47 -35 -79 -67 -113 -25 -25 -61 -65 -81 -89 -76
-93 -261 -209 -422 -266 -41 -15 -122 -54 -180 -86 -196 -110 -292 -150 -388
-161 -196 -22 -260 -32 -322 -50 -156 -47 -433 -64 -573 -34 -131 28 -227 88
-270 169 -19 37 -21 56 -22 211 0 150 3 179 23 244 18 57 23 96 23 170 -1 134
-13 187 -72 310 -92 191 -102 222 -97 304 l3 73 75 83 c105 115 139 169 150
237 16 100 73 161 209 225 124 59 168 70 230 59 31 -5 110 -16 176 -24 116
-13 123 -13 300 15 268 43 555 38 629 -11 17 -11 101 -60 186 -109 85 -48 169
-97 187 -107 38 -22 54 -13 27 17 -36 40 -314 203 -417 243 -103 41 -457 49
-526 12 -26 -14 -58 -19 -130 -19 -130 -1 -285 8 -300 18 -68 41 311 64 964
56 l330 -3 55 -33z"/>
<path d="M1340 2505 c-36 -7 -96 -19 -135 -27 -51 -10 -98 -12 -175 -7 -325
23 -325 23 -359 3 -17 -10 -31 -27 -31 -37 0 -10 3 -17 8 -15 71 37 89 40 175
34 49 -4 112 -12 140 -19 79 -18 295 -14 339 7 53 25 479 29 523 4 17 -9 64
-32 105 -51 41 -18 120 -61 175 -93 118 -71 154 -86 108 -46 -45 39 -221 147
-334 206 l-97 49 -188 3 c-121 1 -212 -3 -254 -11z"/>
<path d="M1550 2403 c-68 -18 -84 -32 -100 -87 -15 -56 -10 -100 13 -104 14
-3 17 4 17 36 0 31 7 46 33 72 58 58 72 64 162 62 153 -2 303 -50 394 -126 76
-64 86 -41 12 26 -65 59 -156 106 -238 123 -86 18 -222 18 -293 -2z"/>
<path d="M835 2384 c-11 -2 -46 -6 -78 -9 -45 -5 -66 -13 -93 -37 -41 -36 -79
-104 -64 -113 6 -3 13 0 16 8 3 8 32 36 66 62 58 45 63 47 153 56 79 8 108 7
186 -10 98 -20 134 -19 101 4 -46 33 -197 53 -287 39z"/>
<path d="M1706 2204 c-113 -17 -151 -30 -198 -64 -39 -28 -98 -96 -98 -112 0
-19 64 -66 104 -78 50 -14 93 0 156 50 38 30 39 30 161 30 68 -1 152 -7 187
-14 69 -15 102 -12 102 10 0 8 5 14 10 14 6 0 10 9 10 19 0 43 -148 132 -249
151 -65 12 -72 12 -185 -6z m34 -79 c13 -39 7 -55 -20 -55 -56 0 -126 -24
-153 -53 -28 -30 -29 -30 -55 -15 -15 9 -28 21 -30 26 -1 5 14 28 35 51 40 45
118 80 180 81 27 0 33 -5 43 -35z"/>
<path d="M712 2136 c-35 -14 -70 -30 -78 -36 -16 -14 -19 -46 -4 -55 21 -13
235 -45 300 -45 64 0 70 -2 94 -31 19 -22 26 -42 26 -72 0 -36 -6 -46 -47 -85
-43 -39 -187 -140 -270 -188 -18 -10 -33 -22 -33 -26 0 -18 41 -6 90 28 51 35
80 39 80 9 0 -14 3 -14 30 0 16 8 31 15 34 15 3 0 28 -30 56 -67 51 -67 70
-80 122 -82 21 -1 31 6 43 30 21 39 15 45 -24 24 -27 -14 -34 -14 -58 -1 -30
16 -76 69 -94 110 -16 34 5 66 71 109 l50 32 -2 72 c-1 40 0 74 3 75 2 2 25
13 52 26 32 15 47 28 47 41 0 25 -21 32 -65 20 -33 -9 -41 -7 -73 15 -131 93
-141 98 -215 102 -59 3 -84 -1 -135 -20z"/>
<path d="M2473 2088 c-51 -25 -18 -47 72 -48 60 -1 77 -10 137 -75 64 -70 84
-139 68 -238 -6 -40 -18 -91 -26 -115 -14 -38 -23 -45 -92 -79 -71 -34 -75
-37 -47 -41 71 -9 142 33 180 109 23 43 25 61 25 170 0 140 -9 167 -75 228
-80 73 -192 115 -242 89z"/>
<path d="M374 2061 c-55 -5 -67 -11 -118 -55 -67 -57 -91 -100 -100 -179 -12
-92 -1 -130 50 -180 53 -53 144 -87 144 -54 0 7 -21 19 -48 25 -97 25 -128 81
-115 202 7 60 30 107 77 159 47 50 81 61 201 61 87 0 105 3 105 15 0 16 -70
18 -196 6z"/>
<path d="M2322 1999 c-18 -5 -60 -28 -94 -49 -115 -75 -194 -77 -290 -10 -77
54 -101 63 -124 44 -18 -13 -17 -16 15 -44 51 -43 112 -69 208 -87 109 -20
172 -9 238 41 66 51 108 61 190 47 98 -17 170 -75 180 -144 6 -39 -12 -159
-30 -201 -7 -16 -6 -17 13 -7 40 21 56 69 57 166 0 84 -2 93 -30 135 -58 87
-226 142 -333 109z"/>
<path d="M365 1898 c-32 -24 -45 -38 -45 -50 0 -13 72 -9 123 7 58 17 83 10
128 -40 43 -47 94 -61 148 -39 41 16 81 55 81 79 0 26 -32 26 -52 0 -26 -33
-57 -32 -102 4 -38 31 -103 49 -196 57 -46 4 -60 1 -85 -18z"/>
<path d="M2363 1848 c-54 -81 -194 -148 -468 -227 -77 -22 -180 -51 -230 -66
-301 -89 -432 -108 -628 -95 -285 20 -430 81 -522 219 -41 61 -55 73 -55 46 0
-9 -19 -52 -43 -98 l-42 -82 1 -120 c2 -136 29 -288 65 -361 13 -25 41 -61 62
-81 99 -89 210 -106 692 -107 l360 -1 90 28 c121 38 217 86 360 181 124 83
255 199 309 275 17 24 63 105 101 180 l70 136 53 -3 c47 -3 53 -1 50 14 -1 9
-36 36 -77 58 -80 44 -87 52 -96 109 -3 20 -10 37 -15 37 -5 0 -22 -19 -37
-42z m40 -122 c11 -27 -14 -86 -50 -121 -39 -38 -112 -69 -186 -80 l-47 -7 0
58 0 59 71 29 c39 16 77 35 84 43 32 32 118 45 128 19z m-343 -164 c0 -32
-110 -130 -170 -151 -75 -26 -169 -46 -177 -37 -4 3 -9 32 -11 64 l-4 57 48
14 c276 76 314 83 314 53z m-1363 -116 c29 -26 35 -37 26 -47 -6 -8 -14 -33
-18 -56 -7 -45 -19 -52 -56 -32 -29 15 -41 57 -34 117 8 64 27 68 82 18z m948
-52 l0 -69 -36 -12 c-34 -11 -268 -38 -274 -31 -1 2 -5 30 -9 64 l-7 60 153
31 c84 17 158 30 163 29 6 -2 10 -34 10 -72z m635 63 c0 -19 -101 -129 -134
-147 -24 -12 -28 -12 -36 0 -17 26 -11 86 9 104 20 18 115 55 144 56 9 0 17
-6 17 -13z m-1333 -58 c49 -10 53 -13 59 -44 3 -19 1 -42 -6 -55 -11 -21 -16
-22 -88 -16 -124 11 -132 14 -132 45 0 16 5 43 11 60 11 32 13 33 58 27 25 -4
69 -11 98 -17z m328 -59 l0 -55 -102 0 c-56 0 -105 3 -108 7 -4 4 -4 27 -1 52
8 52 14 54 136 52 l75 -1 0 -55z m779 -25 c23 -92 21 -99 -31 -144 -58 -49
-186 -116 -207 -108 -21 8 -44 55 -60 126 l-14 59 32 6 c17 3 78 33 136 66 58
32 110 59 116 60 6 0 19 -29 28 -65z m-384 -86 c0 -6 18 -54 41 -107 22 -52
38 -100 35 -108 -8 -20 -68 -33 -208 -46 -81 -8 -131 -9 -137 -3 -6 6 -13 52
-17 103 -6 75 -4 92 7 92 8 0 59 18 114 40 99 39 165 51 165 29z m-347 -114
c4 -8 9 -48 13 -89 7 -75 7 -75 -20 -86 -32 -12 -165 -13 -184 -1 -15 9 -45
162 -34 173 9 9 60 14 148 16 55 2 73 -1 77 -13z m-325 -39 c39 -20 65 -72 60
-120 -3 -28 -6 -31 -37 -29 -79 3 -100 13 -120 51 -32 64 -45 113 -32 122 17
10 90 -3 129 -24z"/>
<path d="M1468 1770 c-26 -16 -23 -44 3 -37 24 6 70 -8 81 -26 14 -21 8 -58
-12 -84 -28 -36 -25 -53 8 -53 42 0 65 31 70 93 4 46 1 57 -20 81 -26 31 -99
45 -130 26z"/>
<path d="M2238 1005 c-13 -13 -54 -40 -93 -58 -147 -72 -599 -231 -797 -281
-197 -50 -434 -55 -678 -15 -151 25 -212 44 -249 75 -27 22 -31 32 -31 75 0
27 -4 49 -10 49 -13 0 -24 -68 -14 -90 14 -29 139 -127 181 -142 29 -10 116
-13 358 -13 293 1 329 3 425 23 145 31 593 182 715 240 125 61 235 129 235
148 0 21 -16 17 -42 -11z"/>
<path d="M2015 983 c-236 -85 -579 -195 -653 -208 -128 -23 -316 -29 -492 -16
-213 15 -223 17 -274 62 -46 41 -60 46 -71 28 -14 -21 40 -80 100 -109 100
-50 269 -61 591 -39 177 12 210 19 410 85 198 66 417 161 494 213 29 20 -32
11 -105 -16z"/>
</g>
</svg>
